<svg xmlns="http://www.w3.org/2000/svg" class="sc-bczRLJ FmYnn" height="48" width="48"><svg width="48" height="49" viewBox="0 0 48 49" fill="none" xmlns="http://www.w3.org/2000/svg"><svg width="48" height="49" viewBox="0 0 48 49" fill="none" xmlns="http://www.w3.org/2000/svg"><path d="M12.0009 24.8889C10.0942 24.8893 8.4528 26.2352 8.07894 28.1049L6.07904 38.1045C5.84402 39.2796 6.14824 40.4981 6.90799 41.4249C7.66775 42.3516 8.80299 42.8889 10.0014 42.8889H37.9986C39.197 42.8889 40.3322 42.3516 41.092 41.4249C41.8518 40.4981 42.156 39.2796 41.921 38.1045L39.921 28.1049C39.5471 26.2353 37.9057 24.8893 35.9991 24.8889" stroke="#AAB6BD" stroke-width="1.5" stroke-linecap="round" stroke-linejoin="round"/><path d="M17 34.8889H31" stroke="#AAB6BD" stroke-width="1.5" stroke-linecap="round" stroke-linejoin="round"/><path fill-rule="evenodd" clip-rule="evenodd" d="M15 15.8889V15.8889C15 10.9184 19.0294 6.88892 24 6.88892V6.88892C28.9706 6.88892 33 10.9184 33 15.8889V15.8889C33 19.8622 28.5197 24.1031 25.8793 26.2567C24.7669 27.1 23.2291 27.0996 22.1171 26.2558C19.479 24.1019 15 19.8617 15 15.8889Z" stroke="#AAB6BD" stroke-width="1.5" stroke-linecap="round" stroke-linejoin="round"/><path d="M23.9981 15.3889C23.7222 15.39 23.4993 15.6143 23.5 15.8902C23.5007 16.1661 23.7247 16.3893 24.0006 16.3889C24.2765 16.3886 24.5 16.1648 24.5 15.8889C24.5007 15.7558 24.448 15.6279 24.3537 15.5339C24.2593 15.4399 24.1312 15.3877 23.9981 15.3889" stroke="#AAB6BD" stroke-width="1.5" stroke-linecap="round" stroke-linejoin="round"/></svg></svg></svg>