<svg xmlns="http://www.w3.org/2000/svg" class="sc-bczRLJ FmYnn" height="48" width="48"><svg width="48" height="49" viewBox="0 0 48 49" fill="none" xmlns="http://www.w3.org/2000/svg"><path d="M32 24.8889C32 29.3069 28.418 32.8889 24 32.8889C19.582 32.8889 16 29.3069 16 24.8889C16 20.4709 19.582 16.8889 24 16.8889V16.8889C28.418 16.8889 32 20.4709 32 24.8889V27.8889C32 30.6509 34.238 32.8889 37 32.8889C39.762 32.8889 42 30.6509 42 27.8889V24.8889C42 14.9469 33.942 6.88892 24 6.88892C14.058 6.88892 6 14.9469 6 24.8889C6 34.8309 14.058 42.8889 24 42.8889C26.298 42.8889 28.634 42.4529 30.888 41.5189C32.104 41.0149 33.228 40.3829 34.266 39.6609" stroke="#AAB6BD" stroke-width="1.5" stroke-linecap="round" stroke-linejoin="round"/></svg></svg>